<svg width="32" height="32" viewBox="0 0 32 32" xmlns="http://www.w3.org/2000/svg">
  <defs>
    <!-- Glowing effect -->
    <filter id="glow">
      <feGaussianBlur stdDeviation="1.5" result="coloredBlur"/>
      <feMerge> 
        <feMergeNode in="coloredBlur"/>
        <feMergeNode in="SourceGraphic"/>
      </feMerge>
    </filter>
    
    <!-- Gradient for futuristic look -->
    <linearGradient id="techGradient" x1="0%" y1="0%" x2="100%" y2="100%">
      <stop offset="0%" style="stop-color:#00BFFF;stop-opacity:1" />
      <stop offset="100%" style="stop-color:#87CEEB;stop-opacity:1" />
    </linearGradient>
  </defs>

  <!-- Background with subtle gradient -->
  <circle cx="16" cy="16" r="15" fill="#0a1428" stroke="url(#techGradient)" stroke-width="1"/>
  
  <!-- Grid pattern for tech feel -->
  <defs>
    <pattern id="grid" width="4" height="4" patternUnits="userSpaceOnUse">
      <path d="M 4 0 L 0 0 0 4" fill="none" stroke="#87CEEB" stroke-width="0.3" opacity="0.3"/>
    </pattern>
  </defs>
  <rect width="30" height="30" x="1" y="1" fill="url(#grid)" rx="15"/>
  
  <!-- Main A structure with geometric precision -->
  <!-- Left side with notched corners -->
  <path d="M 16 5 L 7.5 25 L 10.5 25 L 12 21 L 20 21 L 21.5 25 L 24.5 25 L 16 5 Z" 
        fill="none" 
        stroke="url(#techGradient)" 
        stroke-width="2" 
        filter="url(#glow)"/>
  
  <!-- Crossbar with extended ends -->
  <line x1="11" y1="18" x2="21" y2="18" 
        stroke="url(#techGradient)" 
        stroke-width="2.5" 
        stroke-linecap="square"
        filter="url(#glow)"/>
  
  <!-- Data points/nodes for statistical feel -->
  <circle cx="16" cy="5" r="1.5" fill="url(#techGradient)" filter="url(#glow)"/>
  <circle cx="12" cy="18" r="0.8" fill="url(#techGradient)" opacity="0.8"/>
  <circle cx="20" cy="18" r="0.8" fill="url(#techGradient)" opacity="0.8"/>
  
  <!-- Corner brackets for tech aesthetic -->
  <path d="M 4 8 L 4 4 L 8 4" fill="none" stroke="#87CEEB" stroke-width="1" opacity="0.4"/>
  <path d="M 24 4 L 28 4 L 28 8" fill="none" stroke="#87CEEB" stroke-width="1" opacity="0.4"/>
  <path d="M 28 24 L 28 28 L 24 28" fill="none" stroke="#87CEEB" stroke-width="1" opacity="0.4"/>
  <path d="M 8 28 L 4 28 L 4 24" fill="none" stroke="#87CEEB" stroke-width="1" opacity="0.4"/>
</svg>
